<svg width="94" height="56" viewBox="0 0 94 56" fill="none" xmlns="http://www.w3.org/2000/svg">
<g clip-path="url(#clip0_23_45)">
<path d="M129.693 -27.8209H-32.605V86.14H129.693V-27.8209Z" fill="#ECECEC"/>
<path fill-rule="evenodd" clip-rule="evenodd" d="M55.2476 6.9034C55.2476 6.70966 55.4051 6.55267 55.6001 6.55267C55.7943 6.55267 55.9525 6.70966 55.9525 6.9034V9.30082C55.9412 12.1246 55.2009 14.2126 53.9938 15.6356C52.6286 17.2472 50.6814 17.9996 48.5239 17.9996C46.3658 17.9996 44.4186 17.2457 43.0534 15.6333C41.8463 14.2088 41.106 12.1194 41.0962 9.29489V6.9034C41.0962 6.70966 41.2537 6.55267 41.4486 6.55267C41.6429 6.55267 41.801 6.70966 41.801 6.9034V9.29489C41.81 11.9414 42.4878 13.8797 43.5918 15.1833C44.8117 16.6235 46.5684 17.2966 48.5239 17.2966C50.4796 17.2966 52.2355 16.6242 53.4556 15.1856C54.5594 13.8828 55.2372 11.946 55.2476 9.30082V6.9034Z" fill="#363333"/>
<path fill-rule="evenodd" clip-rule="evenodd" d="M54.6303 5.50263C54.6303 6.32315 54.6303 6.61855 54.6303 6.90341C54.6303 8.01837 54.6378 9.81983 54.2312 11.5623C53.6402 14.0982 52.1709 16.5105 48.524 16.5105C42.3713 16.5105 42.3713 9.34506 42.3713 6.90341C42.3713 4.46099 42.3569 6.32679 42.3667 5.49976C43.2057 7.06632 46.2908 9.77791 46.8992 10.3898C47.2907 10.7747 48.0965 11.6079 48.5429 11.981C48.8163 11.7656 49.0777 11.4517 49.3389 11.1996C49.6099 10.9386 49.8584 10.6859 50.1221 10.4158C51.7275 8.81476 53.4143 7.40134 54.6303 5.50263Z" fill="#363333"/>
<path fill-rule="evenodd" clip-rule="evenodd" d="M42.9961 5.33818C43.4832 6.12865 46.0856 8.58963 46.8989 9.40785C47.2905 9.79304 48.0962 10.6252 48.5427 10.9984C48.8161 10.7837 49.0775 10.4698 49.3387 10.2177C49.6097 9.95595 49.859 9.70402 50.1225 9.43409L53.6882 5.87729C53.8092 5.73447 53.9162 5.57443 54.0255 5.4092C54.1346 5.24552 54.2168 5.06749 54.2935 4.87011C54.5873 4.10952 54.5344 3.15824 54.1369 2.44339C53.0119 0.419091 50.1631 0.305375 48.908 2.24601C48.7362 2.51289 48.6549 2.7275 48.5466 3.05505C48.3041 2.71639 48.1994 1.77106 46.9388 1.15479C46.2188 0.803505 45.2874 0.730949 44.539 1.03151C44.0014 1.24688 43.7527 1.45555 43.3741 1.83997C43.1609 2.0561 42.9938 2.27741 42.8417 2.60497C42.4313 3.48579 42.4833 4.50503 42.9961 5.33818Z" fill="#DD2B1C"/>
<path fill-rule="evenodd" clip-rule="evenodd" d="M48.1709 16.5105C48.1709 16.317 48.3292 16.1598 48.5241 16.1598C48.7199 16.1598 48.878 16.317 48.878 16.5105V21.972C48.878 22.1663 48.7199 22.3235 48.5241 22.3235C48.3292 22.3235 48.1709 22.1663 48.1709 21.972V16.5105Z" fill="#363333"/>
<path fill-rule="evenodd" clip-rule="evenodd" d="M50.9946 21.3864C51.2355 21.3864 51.4306 21.6488 51.4306 21.972C51.4306 22.2957 51.2355 22.5574 50.9946 22.5574H46.054C45.813 22.5574 45.6172 22.2957 45.6172 21.972C45.6172 21.6488 45.813 21.3864 46.054 21.3864H50.9946Z" fill="#363333"/>
<path fill-rule="evenodd" clip-rule="evenodd" d="M50.1205 11.8173C49.9669 11.8173 49.8418 11.6601 49.8418 11.4666C49.8418 11.2721 49.9669 11.1151 50.1205 11.1151H55.3765C55.5301 11.1151 55.6552 11.2721 55.6552 11.4666C55.6552 11.6601 55.5301 11.8173 55.3765 11.8173H50.1205Z" fill="#363333"/>
<path fill-rule="evenodd" clip-rule="evenodd" d="M41.4849 11.8173C41.3673 11.8173 41.2725 11.6601 41.2725 11.4666C41.2725 11.2721 41.3673 11.1151 41.4849 11.1151H45.5067C45.6243 11.1151 45.7191 11.2721 45.7191 11.4666C45.7191 11.6601 45.6243 11.8173 45.5067 11.8173H41.4849Z" fill="#363333"/>
<path fill-rule="evenodd" clip-rule="evenodd" d="M48.5239 10.9827L48.5428 10.9984C48.8162 10.7837 49.0776 10.4698 49.3388 10.2177C49.6098 9.95595 49.8591 9.70402 50.1226 9.43408L53.6889 5.87728C53.8093 5.73447 53.9163 5.57442 54.0256 5.4092C54.1347 5.24552 54.2169 5.06749 54.2936 4.87011C54.5874 4.10951 54.5346 3.15824 54.1371 2.44339C53.012 0.419088 50.1633 0.305372 48.9081 2.24601C48.7364 2.51289 48.655 2.7275 48.5467 3.05505C48.5392 3.04471 48.5316 3.03342 48.5239 3.02211V10.9827Z" fill="#F25552"/>
<path fill-rule="evenodd" clip-rule="evenodd" d="M52.003 45.825L53.7403 45.5178C54.7124 45.289 58.2155 44.77 60.8314 44.3825C62.0837 44.1972 63.1319 44.0416 63.6004 43.9631C63.9067 43.9114 64.193 43.8681 64.4715 43.8254C64.9934 43.7462 65.4926 43.6707 66.0137 43.5599C66.1854 43.5241 66.47 43.4336 66.6967 43.3618C66.8713 43.3064 67.0138 43.2609 67.0589 43.2563L69.4994 42.9752C69.7924 42.9513 69.9038 42.9266 70.0181 42.9012C70.1342 42.8757 70.2531 42.8495 70.5371 42.8234C70.8172 42.7964 71.1651 42.712 71.5378 42.6222C71.9624 42.519 72.4181 42.4084 72.8519 42.3642C74.3036 42.2177 76.043 41.9656 77.8157 41.709C79.6267 41.4466 81.4738 41.1789 83.0921 41.013C83.9783 40.9216 87.757 40.6412 90.6455 40.5434C92.3775 40.485 93.7954 40.4932 94.0996 40.6502L94.1734 40.6875L94.135 40.7601C93.9664 41.0773 92.2669 41.0413 91.4671 41.0248C91.3233 41.022 91.2088 41.0197 91.1411 41.0197C84.8843 41.0436 76.9828 42.3037 69.8157 43.4456C67.0431 43.8875 64.3803 44.3123 61.9639 44.6414C59.5867 44.9643 56.7938 45.4303 53.9737 45.9501C50.8021 46.5347 47.598 47.1877 44.9142 47.7837C44.6935 47.8323 44.5181 47.8884 44.354 47.9399C44.0483 48.0372 43.7786 48.1223 43.3275 48.1375L43.2086 48.1419L43.2477 48.0297C43.3208 47.8241 43.4496 47.6715 43.6153 47.5511C43.7757 47.4345 43.9693 47.3483 44.1779 47.2729C44.6394 47.1046 45.6664 46.8131 46.5513 46.641C47.162 46.5221 47.7102 46.4608 47.9753 46.5341C48.1605 46.5041 48.2825 46.4974 48.4202 46.4892C48.4842 46.4855 48.5528 46.4817 48.6432 46.4742C48.7238 46.4668 48.7629 46.4706 48.7847 46.4758L48.9052 46.439C49.0137 46.4068 49.0702 46.4637 49.0829 46.4675L49.0791 46.4616C49.055 46.4181 49.0536 46.3666 49.1575 46.3098L49.1695 46.3036L52.003 45.8245V45.825ZM32.0716 33.1518C31.5949 33.3821 30.8992 33.7186 30.5558 34.0253C30.915 34.02 31.3938 33.9901 31.8433 33.9407C32.29 33.8921 32.7056 33.8257 32.942 33.7464L33.1122 33.6903C33.6884 33.5025 34.0934 33.3702 34.1462 32.6868C33.6897 32.6531 33.3915 32.6613 33.1311 32.7159C32.8569 32.7735 32.6175 32.8841 32.2742 33.0532L32.0716 33.1518ZM70.8993 35.6773C70.3803 36.0362 69.5356 36.6201 69.5514 36.8947C70.08 36.7833 71.8977 35.8193 73.4626 34.8771C74.1448 34.4664 74.7788 34.0596 75.2374 33.7284C75.6064 33.4621 75.8557 33.258 75.9114 33.1615C75.2968 33.1309 74.3842 33.519 73.4934 34.0089C72.556 34.5233 71.6463 35.1485 71.1229 35.5216C71.0483 35.5747 70.9776 35.6233 70.8993 35.6773ZM48.814 34.7394C47.7237 35.2473 46.6417 36.0736 46.1779 36.5581C46.8691 36.3937 48.1831 35.9622 49.2666 35.4573C50.0188 35.1066 50.6559 34.7245 50.8819 34.3797C50.3412 34.1861 49.5784 34.3835 48.814 34.7394ZM36.2727 36.4968C35.8509 36.9291 35.3834 37.407 35.0738 37.795C35.2319 37.7127 35.4293 37.6043 35.6498 37.4832C36.2027 37.1795 36.9052 36.7938 37.5444 36.5162C37.884 36.369 38.1898 36.1567 38.4473 35.921C38.7569 35.6369 38.9963 35.3197 39.1425 35.0379C39.2816 34.77 39.3352 34.5428 39.2816 34.4201C39.2757 34.4059 39.2674 34.3939 39.2575 34.3835C38.921 34.0207 38.3118 34.4232 37.799 34.8928C37.4684 35.1949 37.1785 35.5268 37.0158 35.7123C36.979 35.755 36.9489 35.7887 36.9217 35.8186C36.7478 36.0108 36.5173 36.2463 36.2727 36.4968ZM58.1289 40.3705C58.1341 40.3818 58.153 40.39 58.1868 40.3936C58.5166 40.3069 58.9835 40.0594 59.4172 39.7776C59.8149 39.5195 60.1823 39.2347 60.3909 39.0185C59.5965 39.0895 58.8029 39.5674 58.3925 39.9652C58.2893 40.0661 58.2116 40.1605 58.1665 40.239C58.1311 40.3018 58.1168 40.3473 58.1289 40.3705ZM23.3523 21.7633C23.1409 21.8464 22.9608 21.9166 22.8372 21.9578L22.8079 21.9681C19.1092 23.2313 13.4375 27.9806 8.99238 33.3044C4.55496 38.6192 1.34319 44.4985 2.55187 48.0312L2.55708 48.0454C2.66175 48.349 2.85684 48.5546 3.10089 48.6699C3.36807 48.7962 3.69655 48.8142 4.03005 48.7334C8.97965 47.5302 14.7755 43.4942 20.1755 39.7326C22.6634 37.9999 25.0686 36.3255 27.2689 35.0116L27.5031 34.8725C27.9149 34.6288 28.3208 34.3879 28.7282 34.1008C28.9743 33.9273 29.2394 33.7246 29.5189 33.5107C30.7251 32.5872 32.1944 31.4617 33.634 31.5799C34.3403 31.6383 34.8005 31.8984 34.9963 32.247C35.107 32.4444 35.1334 32.6688 35.0715 32.9006C35.0121 33.1256 34.8697 33.3568 34.6409 33.5758C33.9369 34.2497 32.396 34.8202 29.9413 34.714C29.8412 34.8815 29.713 35.034 29.5806 35.1918C29.4661 35.3279 29.3487 35.4686 29.2448 35.6233C28.8163 36.2627 28.7432 36.5589 28.8779 36.6487C29.1303 36.8154 30.0286 36.4385 30.8305 36.1019C31.2192 35.939 31.5866 35.7849 31.8555 35.7041C32.5414 35.5 33.2598 35.2682 33.9609 34.9908C34.6605 34.714 35.3456 34.3902 35.9692 33.9991L39.6431 31.4033C40.153 31.0392 40.6769 30.6563 41.2034 30.2719C43.1176 28.8729 45.0648 27.4497 47.1666 26.3332C47.5084 26.1515 47.7944 25.9421 48.0445 25.7589C48.7057 25.2751 49.1363 24.9594 49.7478 25.6609L49.7833 25.7013L49.7592 25.7499C49.5045 26.2599 49.2169 26.4454 48.7417 26.7513L48.6205 26.829C48.1582 27.1296 47.6838 27.4332 47.2102 27.7361C44.9331 29.1935 42.6665 30.6437 40.6386 32.4159C40.5453 32.4974 40.4595 32.5746 40.3743 32.6508C40.0662 32.9267 39.7711 33.1914 39.4376 33.4024C39.634 33.8046 39.8027 34.0029 39.9211 34.1419C40.1988 34.4679 40.232 34.5076 39.8283 35.6398C40.5295 35.5186 41.2705 35.3243 41.9934 35.1344C42.3517 35.04 42.7064 34.9473 43.0542 34.8637C43.4677 34.7641 43.9082 34.6661 44.3562 34.5667C45.0873 34.4036 45.8382 34.2369 46.5461 34.0462C46.9337 33.9422 47.3239 33.8077 47.717 33.6723C48.9249 33.2573 50.1634 32.8309 51.3811 33.2243C51.7576 33.3463 51.961 33.4271 52.0776 33.4726C52.1507 33.5025 52.1846 33.5153 52.195 33.5153C52.2012 33.5153 52.1945 33.5107 52.2056 33.5017C52.2681 33.4518 52.3969 33.3478 52.842 33.2169L52.8751 33.2071L52.9052 33.2236C53.4068 33.5017 53.4076 33.9049 53.141 34.3789C52.8721 34.8568 52.3225 35.4072 51.7569 35.9719C51.4459 36.2838 51.1296 36.5993 50.8547 36.9104C50.7666 37.0099 50.6093 37.1834 50.4127 37.3995C49.7351 38.1465 48.5844 39.4148 48.074 40.0781C48.6823 39.7117 49.4157 39.3422 50.1222 38.9871C50.4134 38.8412 50.6997 38.6969 50.9534 38.5654C52.2756 37.881 53.5602 37.0951 54.799 36.2463C56.0377 35.3976 57.2312 34.4852 58.3728 33.546C58.4609 33.4734 58.5393 33.406 58.6145 33.3409C59.0656 32.9536 59.4406 32.6307 60.1341 32.6284H60.1725L60.1966 32.6575C60.9218 33.5236 60.7034 33.9078 60.165 34.3521C60.0702 34.4299 59.9707 34.506 59.8654 34.5861C59.6703 34.735 59.4542 34.8995 59.2395 35.0991C59.1115 35.2165 58.9723 35.3407 58.836 35.4627C58.4971 35.7648 58.1787 36.0481 57.9497 36.3322C59.6167 35.9645 62.214 34.2122 63.2306 33.5272C63.4776 33.3605 63.6341 33.2542 63.674 33.2408C63.8691 33.1742 64.037 33.1952 64.1635 33.2714C64.2471 33.3208 64.3127 33.3949 64.3549 33.4824C64.3961 33.5684 64.4166 33.6679 64.4114 33.7724C64.4015 33.9759 64.2976 34.2003 64.0725 34.3768C63.8556 34.5472 63.5981 34.7162 63.3353 34.8889C63.1281 35.025 62.918 35.1627 62.7246 35.304C62.4241 35.5216 61.7035 36.1191 61.2773 36.7369C61.0302 37.0959 60.8842 37.4585 60.9889 37.7449C61.1288 37.8863 61.3797 37.7674 61.6154 37.6553C61.7012 37.6141 61.7862 37.5737 61.8668 37.5446C63.1071 37.098 64.3715 36.6075 65.6183 36.081C66.784 35.5898 67.9339 35.067 69.0325 34.5204C69.6033 34.2369 70.1756 33.9296 70.7426 33.6252C71.4481 33.246 72.1469 32.8706 72.8397 32.5432L72.918 32.5064C73.8383 32.0705 75.2004 31.4259 76.2503 31.8042C76.632 31.9419 76.7231 32.1781 76.833 32.4632C76.8496 32.5064 76.8669 32.5507 76.8856 32.5962C77.1011 32.5154 77.3134 32.401 77.5274 32.2874C77.9935 32.0368 78.4648 31.7849 79.004 31.8364L79.0499 31.8402L79.0695 31.8806C79.4746 32.6868 78.4031 33.4338 77.4836 34.0747C77.2766 34.2189 77.0763 34.3581 76.9037 34.4919C76.2524 34.9944 75.7344 35.5172 75.1996 36.0556C75.0009 36.2552 74.8006 36.4572 74.5905 36.6605L78.5552 35.3855C80.1192 34.9429 84.4656 33.9767 88.062 33.3664C90.5198 32.95 92.6335 32.6994 93.2857 32.8945L93.3422 32.911L93.358 33.4577L93.2728 33.4562C92.5198 33.4428 91.6539 33.5182 90.797 33.6394C89.7156 33.792 88.6509 34.0171 87.8459 34.225C86.9942 34.444 86.1229 34.5847 85.239 34.7275C84.3685 34.8673 83.4859 35.0101 82.6019 35.2314C81.431 35.5247 80.2096 35.8304 79.0048 36.1791C77.7984 36.5275 76.6011 36.9194 75.473 37.3851C75.3382 37.4407 75.1854 37.5101 75.0182 37.5863C74.4045 37.8653 73.6072 38.2281 73.0747 38.2078L73.0408 38.2064L72.6757 37.8159L72.6824 37.7763C72.821 36.9395 73.5167 36.3046 74.1764 35.702C74.5566 35.3541 74.9249 35.0183 75.1584 34.6669C74.7915 34.8284 74.1598 35.1807 73.4204 35.5934C71.574 36.6232 69.0687 38.0201 68.2358 37.7927C67.6922 37.6447 67.5921 37.3336 67.6891 36.9806C67.7878 36.624 68.101 36.2344 68.3329 35.9457L68.4249 35.8304C67.8051 36.0751 67.2019 36.3458 66.5987 36.6157C65.8194 36.9657 65.0408 37.3156 64.2238 37.6087L61.4203 38.7574C61.3646 38.833 61.3367 38.9205 61.3035 39.0252C61.2027 39.3386 61.0589 39.7887 60.0761 40.565C59.1537 41.294 58.4075 41.4795 57.9263 41.3637C57.732 41.3166 57.5784 41.2201 57.4729 41.0907C57.3661 40.9597 57.3081 40.7968 57.3029 40.6151C57.2915 40.2083 57.5514 39.7058 58.1432 39.2869C58.4678 39.0581 58.8586 38.8158 59.263 38.605C59.5898 38.4337 59.9263 38.2819 60.244 38.1735C60.2103 38.0919 60.1756 38.0328 60.1448 37.9798C60.0468 37.8099 59.9769 37.6888 60.025 37.223C60.0409 37.0735 60.0815 36.9127 60.1326 36.7593C60.1779 36.6224 60.2313 36.4909 60.2818 36.378C60.0243 36.4706 59.6703 36.6345 59.2773 36.8162C58.1937 37.3172 56.8164 37.9543 56.2064 37.6746L56.1665 37.6553C55.888 37.513 55.7727 37.2963 55.7524 37.0599C55.7359 36.8746 55.781 36.6785 55.8502 36.4991C55.348 36.739 54.6816 37.1795 54.0753 37.5812C53.7848 37.7742 53.5076 37.9581 53.2711 38.1038C52.4414 38.6192 51.6395 39.0559 50.8404 39.4918C50.1808 39.8507 49.5234 40.2089 48.8609 40.6054C48.1364 41.0377 47.4187 41.4743 46.7404 41.9478C46.0649 42.4181 45.4301 42.9243 44.8697 43.4963L44.5189 43.8568C43.7719 44.6249 43.0521 45.366 42.2831 45.9732L38.5678 49.3242C38.4774 49.4019 38.4066 49.4678 38.3411 49.5291C38.2154 49.6457 38.104 49.749 37.9014 49.9001L37.833 49.95C37.2583 50.3787 35.5384 51.6604 34.8751 51.4368L34.8683 51.4345L34.8614 51.4308C34.7313 51.3583 34.631 51.2716 34.558 51.172C34.4142 50.9754 34.3781 50.7369 34.418 50.4773C34.4564 50.2276 34.5662 49.9567 34.7183 49.6853C35.1746 48.8665 36.0219 48.0253 36.4271 47.7328C36.7072 47.5302 36.8834 47.3769 37.0694 47.2138C37.2078 47.0933 37.3516 46.9678 37.5444 46.8167C38.6974 45.9081 39.8623 45.0847 41.058 44.2981C42.253 43.5107 43.4767 42.7614 44.7479 41.9993C45.0912 41.7937 46.4896 40.2719 47.8035 38.7455C48.8886 37.4839 49.9136 36.2231 50.2313 35.7056C49.8901 35.8567 49.4571 36.0833 48.9783 36.333C47.3993 37.1571 45.3306 38.2378 44.3072 37.7943L44.2735 37.7801L44.2621 37.7449C44.1077 37.2693 44.2289 36.7698 44.4865 36.3152C44.7546 35.8433 45.171 35.4192 45.5783 35.1238C45.1824 35.1717 44.5256 35.3227 43.7848 35.5142C42.125 35.9449 40.0498 36.5851 39.512 36.7601C38.5844 37.0637 37.8675 37.644 37.1417 38.2317C36.3411 38.8801 35.5293 39.5375 34.4051 39.8605L34.339 39.8792L33.8576 38.9174L27.9293 45.7242C27.4088 46.4287 26.8297 47.0956 26.2522 47.7605C25.5738 48.542 24.8968 49.3212 24.3231 50.1543C24.155 50.3988 24.018 50.6262 23.8659 50.8782C23.8042 50.9798 23.741 51.0861 23.6746 51.1936C23.4443 51.5683 23.3132 51.753 23.1077 52.044L23.0377 52.1434C22.8696 52.3806 22.7968 52.5764 22.7237 52.7702C22.6626 52.9339 22.6025 53.0962 22.4903 53.2809L22.4638 53.3234L22.4141 53.3198C21.857 53.2771 21.6889 53.011 21.7176 52.6415C21.7462 52.2676 21.9939 51.7919 22.2237 51.3524C22.3306 51.1466 22.4338 50.9484 22.5061 50.778C22.5851 50.5933 23.5391 48.9995 23.6642 48.8471C23.741 48.7535 23.7974 48.6879 23.8493 48.6272C23.936 48.5278 24.0099 48.4424 24.1226 48.2914C24.2281 48.1516 24.3411 47.9782 24.4571 47.8001C24.6053 47.572 24.7598 47.3365 24.9103 47.1473C24.9585 47.0866 25.0054 47.0269 25.0549 46.9634C25.1513 46.8391 25.259 46.7009 25.3614 46.5774L25.8576 46.0548C26.119 45.7751 26.4856 45.2792 26.8704 44.7579C27.2696 44.2173 27.6889 43.6497 28.0377 43.2624L29.4171 41.576C29.4804 41.5109 29.5565 41.4376 29.6332 41.3637C29.7441 41.2567 29.8555 41.1498 29.9247 41.0698C30.006 40.977 30.0633 40.9008 30.1198 40.8259C30.1905 40.7317 30.2605 40.6383 30.3825 40.5066L30.5535 40.3211C30.8554 39.9922 30.9901 39.8456 31.3969 39.4799L35.0632 35.6017C34.7101 35.7355 34.2673 35.9285 33.7778 36.1415C31.7125 37.0413 28.8126 38.305 27.9397 37.1347C27.5679 36.6358 27.805 36.1168 28.0301 35.6264L28.0504 35.5823C27.7094 35.7498 27.0331 36.158 26.2825 36.6299C24.9737 37.4548 23.4458 38.4725 23.0549 38.7687C20.8162 40.4662 15.2937 44.2307 10.4954 46.89C7.35845 48.6279 4.52624 49.8947 3.10763 49.8095L3.0978 49.808C2.73115 49.7414 2.43062 49.5785 2.19486 49.3451C1.94271 49.096 1.76498 48.7664 1.65722 48.3886C0.771817 45.2651 2.44797 41.0189 5.20923 36.7899C8.83122 31.242 14.3237 25.7148 18.3389 22.799C18.732 22.5141 19.308 22.1117 19.8742 21.7499C20.2959 21.4798 20.7123 21.2317 21.0452 21.067C21.9488 20.6213 23.2741 20.029 24.4276 19.9482C25.6099 19.8653 26.61 20.3087 26.811 21.9578C27.046 23.8841 25.9661 26.3931 24.375 28.8175C22.3154 31.956 19.3945 34.9607 17.3689 36.3682L17.3305 36.3944L17.2883 36.3757C16.9571 36.229 16.8064 36.037 16.7802 35.7998C16.7545 35.5733 16.8463 35.3137 17.0015 35.0168C17.1227 34.7844 17.1769 34.7597 17.2725 34.7162C17.3238 34.6931 17.3909 34.6632 17.5044 34.5614C17.5482 34.5225 17.5655 34.5032 17.5873 34.4769C17.6054 34.4568 17.6257 34.4337 17.6611 34.3969C18.6755 33.3515 19.5971 32.5072 20.4322 31.7422C23.0813 29.3155 24.8652 27.6823 25.9262 22.974C26.1867 21.8171 25.7591 21.3161 25.7192 21.269L25.7018 21.2481L25.698 21.2286C25.6731 21.1059 25.4458 21.1066 25.1318 21.1687C24.6107 21.2726 23.8803 21.5577 23.3523 21.7633ZM36.8917 48.6272C36.2929 49.1747 35.7568 49.7527 35.549 50.2207C36.5069 49.7504 38.0092 48.6436 39.3969 47.4808C40.8036 46.3008 42.089 45.0667 42.5634 44.3864C41.7682 44.8035 40.1559 46.0375 39.256 46.7262C39.0648 46.8728 38.9044 46.9955 38.7989 47.074C38.3403 47.418 37.5754 48.0021 36.8917 48.6272Z" fill="#363333"/>
</g>
<defs>
<clipPath id="clip0_23_45">
<rect width="94" height="56" fill="white"/>
</clipPath>
</defs>
</svg>
